<svg xmlns="http://www.w3.org/2000/svg"><symbol id="airplane" viewBox="0 0 157 82"><path d="M108.92 27.61L88 30.22 69.42 17.63A2 2 0 0 0 68 17.3l-14.92 2.11A2 2 0 0 0 52 22.87l11.38 10.4-8 1-8.27 1L17 18.26a2 2 0 0 0-1.94 0l-7.3 3.92a2 2 0 0 0-.28 3.33l16.28 12.68-4.15.52a2 2 0 0 0-1.17 3.39c.61.61 13.73 13.54 38.65 13.54A77 77 0 0 0 67 55l6.27-.78-4.16 6.54a2 2 0 0 0 1.64 3.08L78 64a2 2 0 0 0 1.48-.65l10.16-11.17 44.89-5.58a5 5 0 0 0 4-3 4.87 4.87 0 0 0-.66-4.91c-5.64-7.22-20.62-12.11-28.95-11.08zm-51.08-4.83l10-1.41L81.93 31l5 3.41 6.13 4.17L90 39l-6.74.86a2 2 0 0 0-.79.28l-4.8.73-5.15-4.71-3.88-3.55zm-45.49 1.46L16 22.29l24.41 13.83-11 1.37zM77.13 60l-2.77-.07 4-6.34 5.14-.64zm57.69-18a1 1 0 0 1-.79.6l-40.26 5-6.1.76-6.49.8-5.18.67L66.48 51C45.14 53.8 31 46.38 24.81 42.09l4.19-.52 17.9-2.22 20.33-2.52 8.38 7.66A2 2 0 0 0 77 45h.3l2-.31 5.25-.8L90.4 43l8.32-1.27a1.82 1.82 0 0 0 .61-.2 2 2 0 0 0 1-1.33 2 2 0 0 0-.83-2.1L93 33.62l16.45-2c4.09-.51 10.33.76 15.77 3.08l-6.23.77-2 .25.46 3.74h2a13 13 0 0 0 2.24-.2c.74-.11 1.48-.26 2.21-.44a11.1 11.1 0 0 0 4.3-1.88l.6-.46a19.83 19.83 0 0 1 5.89 4.69.92.92 0 0 1 .13.83z"/></symbol><symbol id="map" viewBox="0 0 94 85"><path d="M74.78 27.43L57 18.52l-.16-.08a1.78 1.78 0 0 0-1.56 0l-1.43.71-15.28 7.61h-.07a1.68 1.68 0 0 0-.74.17l-17-8.49A1.75 1.75 0 0 0 18.25 20v36a1.75 1.75 0 0 0 1 1.57l18 9a1.78 1.78 0 0 0 1.56 0L56 58l17.22 8.61A1.75 1.75 0 0 0 75.75 65V29a1.75 1.75 0 0 0-.97-1.57zm-2.53 15.89c-5.17-3.82-10-5-15-3.68V22.58l15 7.5zM53.75 41a34.06 34.06 0 0 0-7.41 5.2 11 11 0 0 1-6.09 2.8V29.84l13.5-6.75zm-32-18.16l15 7.5v18.51a12 12 0 0 1-1.7-.41c-6-1.91-11-7.69-13.3-15.33zm0 18.76A22.89 22.89 0 0 0 34 51.77a17 17 0 0 0 2.75.63v10l-15-7.5zm18.5 10.9a14.54 14.54 0 0 0 8.41-3.68A34.53 34.53 0 0 1 53.75 45v10.17l-13.5 6.75zm32 9.68l-15-7.5V43.33c5-1.68 9.61-.19 15 4.46z"/></symbol><symbol id="bookmark" viewBox="0 0 94 112"><path d="M56 94a2.07 2.07 0 0 0 .77-.15A2 2 0 0 0 58 92V41.24l13.21 6.6a2 2 0 0 0 2.68-.9A19.82 19.82 0 0 0 76 38a20 20 0 0 0-11.64-18.16A19.73 19.73 0 0 0 56 18H38a20 20 0 0 0-20 20v54a2 2 0 0 0 1.23 1.85 2 2 0 0 0 2.18-.44L38 76.83l16.59 16.58A2 2 0 0 0 56 94zm16-56a15.88 15.88 0 0 1-.9 5.31l-13-6.51c0-.35.09-.69.15-1 0-.1 0-.2.06-.3 0-.26.1-.51.16-.76s.06-.24.1-.36.13-.48.21-.72.07-.22.1-.34c.1-.29.21-.58.32-.87a.88.88 0 0 0 .05-.15c.14-.33.28-.66.43-1 0-.1.09-.2.14-.3s.21-.46.32-.69l.18-.34c.11-.22.22-.43.34-.64l.17-.31q.21-.39.45-.78l.06-.11c.18-.29.36-.58.54-.85A2.33 2.33 0 0 1 62 27c.12-.2.25-.38.37-.57l.19-.27.36-.52.17-.23.47-.64.43-.56A16 16 0 0 1 72 38zM54 87.17L39.41 72.59a2 2 0 0 0-2.82 0L22 87.17V38a16 16 0 0 1 16-16h18a16 16 0 0 1 4.22.56v.06l-.16.22-.45.62-.22.31-.4.59-.23.33-.42.66-.2.31c-.2.32-.4.66-.59 1l-.06.09c-.17.31-.35.62-.52.95l-.18.34c-.12.24-.25.49-.37.74l-.19.4-.33.74c-.06.14-.12.27-.17.4-.12.29-.24.59-.35.89 0 .09-.07.17-.1.26-.14.39-.27.78-.39 1.18l-.09.29-.24.9-.09.43c-.06.27-.11.53-.16.8s-.05.3-.07.45-.08.56-.11.85V38z"/></symbol><symbol id="home" viewBox="0 0 98 98"><path d="M52 19.17a4 4 0 0 0-5.66 0l-27 27A4 4 0 0 0 22.16 53h2.75v23a4 4 0 0 0 4 4h13.5a4 4 0 0 0 4-4V59.75h5.5V76a4 4 0 0 0 4 4h13.5a4 4 0 0 0 4-4V53h2.75A4 4 0 0 0 79 46.17zM69.41 49v27h-13.5V55.75h-13.5V76h-13.5V49h-6.75l27-27 27 27z"/></symbol><symbol id="search" viewBox="0 0 93 92"><path d="M73.62 64.88L56.88 48.13c.27-.52.54-1.05.77-1.59a20.94 20.94 0 1 0-9.44 10.22c.47-.24.93-.51 1.38-.79l16.47 16.47a4.13 4.13 0 0 0 5.82 0l1.74-1.74a4.11 4.11 0 0 0 0-5.82zm-27-11.21a17.41 17.41 0 1 1 4.18-3.09 17.62 17.62 0 0 1-4.22 3.09z"/><path d="M31.16 28.5a1.76 1.76 0 0 0-2.48 0 13.88 13.88 0 0 0 0 19.6 1.75 1.75 0 1 0 2.48-2.47 10.37 10.37 0 0 1 0-14.65 1.76 1.76 0 0 0 0-2.48z"/></symbol><symbol id="key" viewBox="0 0 100 102"><path d="M75.15 24.4a22.53 22.53 0 0 0-35.58 26.94l-18.95 19a1.75 1.75 0 0 0-.49.95l-1.81 11.2a1.75 1.75 0 0 0 1.73 2h.27l11.25-1.82a1.77 1.77 0 0 0 1-.49l3.26-3.26a1.77 1.77 0 0 0 .49-1l.68-4.33 4.37-.7a1.75 1.75 0 0 0 1.45-1.45l.71-4.38 4.37-.7a1.74 1.74 0 0 0 1-.49l3.95-4a22.53 22.53 0 0 0 22.3-37.47zm-2.47 29.38a19.15 19.15 0 0 1-19.78 4.5 1.77 1.77 0 0 0-1.82.41L46.78 63l-5.07.82a1.75 1.75 0 0 0-1.45 1.45l-.7 4.37-4.38.71a1.75 1.75 0 0 0-1.45 1.45l-.81 5.06-2.47 2.47-8.29 1.34v-.11l.19-.16 20-20a1.75 1.75 0 0 0-2.5-2.4L23.12 74.69l.38-2.33L43 52.85a1.74 1.74 0 0 0 .23-2.19 19 19 0 1 1 35-10.33 18.9 18.9 0 0 1-5.55 13.45z"/><path d="M70.62 28.57A7.91 7.91 0 1 0 65 42.07a7.81 7.81 0 0 0 5-1.79 7.43 7.43 0 0 0 .59-.53 7.92 7.92 0 0 0 0-11.18zM61.91 31a4.41 4.41 0 0 1 6.23 6.24A4.41 4.41 0 0 1 61.91 31z"/></symbol><symbol id="next" viewBox="0 0 80 94"><path d="M61.61 45.34l-40.5-27a2 2 0 0 0-2.22 3.32l38 25.34L22 70.26V60.5a2 2 0 0 0-4 0V74a2 2 0 0 0 1.06 1.76 2 2 0 0 0 2.05-.1l40.5-27a2 2 0 0 0 0-3.32z"/></symbol><symbol id="star" viewBox="0 0 101 98"><path d="M65.47 58.62l5.73 17.65a2.63 2.63 0 0 1-4 3l-15-10.91a2.64 2.64 0 0 0-3.1 0L34 79.22a2.63 2.63 0 0 1-4.05-3l5.73-17.65a2.63 2.63 0 0 0-1-2.95l-15-10.9A2.64 2.64 0 0 1 21.3 40h18.54a2.65 2.65 0 0 0 2.51-1.82l5.73-17.64a2.64 2.64 0 0 1 5 0l5.73 17.64A2.65 2.65 0 0 0 61.34 40h18.54a2.64 2.64 0 0 1 1.55 4.77l-15 10.9a2.63 2.63 0 0 0-.96 2.95z"/></symbol><symbol id="speech" viewBox="0 0 108 94"><path d="M60.75 18c-12.48 0-23.59 6.21-27.49 15.2-9.15 3-15 9.69-15 17.18 0 9.07 8.41 16.63 20.25 18.46V74a2 2 0 0 0 1.23 1.85 2.07 2.07 0 0 0 .77.15 2 2 0 0 0 1.41-.59L48.37 69a29.28 29.28 0 0 0 13.92-5.45L73.36 69a2 2 0 0 0 1.94 0 2 2 0 0 0 1-1.7v-8.23c8.36-4 13.5-11.16 13.5-18.82C89.75 28 76.74 18 60.75 18zM47.23 65.07a2 2 0 0 0-1.2.57l-3.53 3.53v-2.09a2 2 0 0 0-1.8-2C30.18 64 22.25 57.69 22.25 50.38c0-5 3.69-9.64 9.65-12.37v.84c0 .47-.06.93-.06 1.4v1.45c0 .12 0 .48.07.72l.06.42c0 .22.07.43.11.64l.09.45c.05.2.09.4.14.6s.08.3.13.45.11.39.17.59l.15.44.21.57.18.44.24.56.2.42c.09.19.19.38.29.56l.21.41.33.55.23.39c.12.19.25.38.38.57l.23.34.45.61c.08.1.14.19.22.28.2.27.42.52.64.78l.07.09c.25.29.51.57.78.85l.17.17c.21.21.42.43.64.63l.29.27.57.51.35.29.56.46.38.29.57.43.41.28.59.4.42.27.62.38.43.26.64.35.45.24.67.34.46.22.71.32.44.2.79.31.4.17 1 .34.25.09 1.26.4.21.06 1.07.28.45.11.85.2.54.1.79.15.58.09.77.12.61.07.46.06a27.46 27.46 0 0 1-9.59 2.78zM73.46 56a2 2 0 0 0-1.21 1.84V64L63 59.36l-.26-.13-1-.52a1.94 1.94 0 0 0-.89-.21c-13.79 0-25-8.19-25-18.25 0-.44 0-.89.07-1.33a13.31 13.31 0 0 1 .42-2.25c0-.11.07-.21.1-.32.09-.28.17-.57.28-.84C39.56 27.55 49.49 22 60.75 22c13.79 0 25 8.19 25 18.25 0 6.4-4.75 12.42-12.29 15.75z"/></symbol></svg>